<?xml version="1.0" encoding="UTF-8"?><!DOCTYPE svg PUBLIC "-//W3C//DTD SVG 1.1//EN" "http://www.w3.org/Graphics/SVG/1.1/DTD/svg11.dtd"><svg xmlns="http://www.w3.org/2000/svg" xmlns:xlink="http://www.w3.org/1999/xlink" version="1.1" width="24" height="24" viewBox="0 0 24 24"><path d="M10,17h2.09C12.035,17.326,12,17.659,12,18h-2V17z M10,7h5V6h-5V7z M6,7h2V6H6V7z M8,18v-1H6v1H8z M12.349,20H4v-5h8.809
	c0.465-0.802,1.106-1.488,1.877-2H4c-1.105,0-2,0.895-2,2v5c0,1.105,0.895,2,2,2h9.537C13.019,21.423,12.613,20.746,12.349,20z M2,9
	V4c0-1.105,0.895-2,2-2h16c1.105,0,2,0.895,2,2v5c0,1.105-0.895,2-2,2H4C2.895,11,2,10.105,2,9z M4,9h16V4H4V9z M17,14v3h-3v2h3v3h2
	v-3h3v-2h-3v-3H17"/></svg>
