<?xml version="1.0" encoding="utf-8"?>
<!-- Generator: Adobe Illustrator 25.1.0, SVG Export Plug-In . SVG Version: 6.00 Build 0)  -->
<svg version="1.1" id="Layer_1" xmlns="http://www.w3.org/2000/svg" xmlns:xlink="http://www.w3.org/1999/xlink" x="0px" y="0px"
	 viewBox="0 0 24 24" style="enable-background:new 0 0 24 24;" xml:space="preserve">
<style type="text/css">
	.st0{fill-rule:evenodd;clip-rule:evenodd;}
</style>
<path class="st0" d="M8,7H6V6h2V7z M8,17H6v1h2V17z M15,6h-5v1h5V6z M15,17h-5v1h5V17z M22,4v5c0,1.105-0.895,2-2,2H4
	c-1.105,0-2-0.895-2-2V4c0-1.105,0.895-2,2-2h16C21.105,2,22,2.895,22,4z M20,4H4v5h16V4z M22,15v5c0,1.105-0.895,2-2,2H4
	c-1.105,0-2-0.895-2-2v-5c0-1.105,0.895-2,2-2h16C21.105,13,22,13.895,22,15z M20,15H4v5h16V15z"/>
</svg>
